<?xml version="1.0" standalone="no"?>
<!DOCTYPE svg PUBLIC "-//W3C//DTD SVG 20010904//EN"
 "http://www.w3.org/TR/2001/REC-SVG-20010904/DTD/svg10.dtd">
<svg version="1.0" xmlns="http://www.w3.org/2000/svg"
 width="1024.000000pt" height="1024.000000pt" viewBox="0 0 1024.000000 1024.000000"
 preserveAspectRatio="xMidYMid meet">
<metadata>
Created by potrace 1.11, written by Peter Selinger 2001-2013
</metadata>
<g transform="translate(0.000000,1024.000000) scale(0.100000,-0.100000)"
fill="#000000" stroke="none">
<path d="M5030 9379 c-120 -23 -81 13 -1253 -1158 -604 -603 -1115 -1118
-1135 -1146 -100 -134 -106 -332 -16 -475 116 -185 359 -251 557 -152 41 20
206 180 780 751 400 399 728 721 728 716 1 -6 2 -941 4 -2080 3 -2289 -2
-2127 66 -2224 49 -69 69 -90 126 -126 131 -85 281 -93 429 -23 60 28 152 119
181 178 52 109 49 -11 49 2217 l-1 2073 725 -724 c399 -398 741 -733 761 -744
87 -52 219 -73 317 -51 154 34 287 167 321 322 25 107 -4 248 -69 341 -15 22
-525 537 -1132 1142 -1189 1187 -1137 1139 -1267 1164 -62 12 -108 11 -171 -1z"/>
<path d="M1183 4254 c-80 -21 -138 -52 -191 -102 -59 -56 -92 -107 -118 -182
-17 -52 -18 -105 -19 -990 0 -678 3 -958 12 -1020 40 -285 157 -522 357 -724
77 -78 191 -170 246 -198 14 -7 27 -15 30 -18 10 -10 185 -88 235 -104 74 -23
179 -46 249 -54 83 -9 6205 -8 6281 1 362 43 698 252 912 568 70 103 160 315
178 419 3 19 8 43 11 52 3 9 7 34 10 55 9 62 11 1946 3 1968 -5 11 -13 38 -19
61 -14 58 -95 162 -160 205 -235 158 -549 53 -646 -217 -16 -45 -17 -118 -19
-969 -1 -506 -5 -936 -9 -955 -12 -62 -63 -158 -112 -210 -48 -51 -158 -114
-219 -125 -16 -3 -1401 -6 -3076 -6 -2277 0 -3058 3 -3090 11 -71 19 -156 69
-205 122 -47 50 -98 147 -110 208 -4 19 -8 449 -9 955 -2 1022 2 957 -70 1068
-95 148 -287 225 -452 181z"/>
</g>
</svg>
